<svg width="63" height="65" viewBox="0 0 63 65" fill="none" xmlns="http://www.w3.org/2000/svg">
<path d="M28.301 48.7072H24.6907L23.5761 45.154C23.5131 44.9485 23.3241 44.8082 23.1157 44.8082C22.9074 44.8082 22.7184 44.9485 22.6554 45.154L21.5408 48.7072H17.9304C17.7221 48.7072 17.5331 48.8475 17.4701 49.053C17.4071 49.2584 17.4749 49.4839 17.6445 49.6142L20.5667 51.8093L19.4521 55.3625C19.3891 55.568 19.457 55.7935 19.6266 55.9238C19.7962 56.0491 20.0288 56.0491 20.1984 55.9238L23.1206 53.7287L26.0428 55.9238C26.13 55.9889 26.2269 56.019 26.3287 56.019C26.4304 56.019 26.5274 55.9889 26.6146 55.9238C26.7842 55.7985 26.8569 55.568 26.7891 55.3625L25.6745 51.8093L28.5966 49.6142C28.7662 49.489 28.8389 49.2584 28.7711 49.053C28.7032 48.8475 28.5143 48.7072 28.301 48.7072ZM24.8119 51.2129C24.6422 51.3382 24.5696 51.5687 24.6374 51.7742L25.4031 54.2048L23.4017 52.7014C23.3144 52.6362 23.2175 52.6061 23.1157 52.6061C23.014 52.6061 22.917 52.6362 22.8298 52.7014L20.8284 54.2048L21.5941 51.7742C21.6571 51.5687 21.5892 51.3432 21.4196 51.2129L19.4182 49.7095H21.8897C22.0981 49.7095 22.2871 49.5691 22.3501 49.3637L23.1157 46.9331L23.8814 49.3637C23.9444 49.5691 24.1334 49.7095 24.3418 49.7095H26.8133L24.8119 51.2129Z" fill="white"/>
<path d="M41.177 48.7072H37.5667L36.4521 45.154C36.3891 44.9485 36.2001 44.8082 35.9917 44.8082C35.7833 44.8082 35.5943 44.9485 35.5313 45.154L34.4167 48.7072H30.8064C30.598 48.7072 30.409 48.8475 30.346 49.053C30.283 49.2584 30.3509 49.4839 30.5205 49.6142L33.4427 51.8093L32.3281 55.3625C32.2651 55.568 32.3329 55.7935 32.5025 55.9238C32.6722 56.0491 32.9048 56.0491 33.0744 55.9238L35.9966 53.7287L38.9187 55.9238C39.006 55.9889 39.1029 56.019 39.2047 56.019C39.3064 56.019 39.4033 55.9889 39.4906 55.9238C39.6602 55.7985 39.7329 55.568 39.665 55.3625L38.5504 51.8093L41.4726 49.6142C41.6422 49.489 41.7149 49.2584 41.6471 49.053C41.5792 48.8475 41.3854 48.7072 41.177 48.7072ZM37.683 51.2129C37.5134 51.3382 37.4407 51.5687 37.5085 51.7742L38.2742 54.2048L36.2728 52.7014C36.1856 52.6362 36.0886 52.6061 35.9869 52.6061C35.8851 52.6061 35.7882 52.6362 35.7009 52.7014L33.6995 54.2048L34.4652 51.7742C34.5282 51.5687 34.4604 51.3432 34.2907 51.2129L32.2893 49.7095H34.7608C34.9692 49.7095 35.1582 49.5691 35.2212 49.3637L35.9869 46.9331L36.7525 49.3637C36.8155 49.5691 37.0045 49.7095 37.2129 49.7095H39.6844L37.683 51.2129Z" fill="white"/>
<path d="M15.5656 48.7072H11.9552L10.8406 45.154C10.7776 44.9485 10.5886 44.8082 10.3803 44.8082C10.1719 44.8082 9.98289 44.9485 9.91989 45.154L8.80529 48.7072H5.19497C4.98659 48.7072 4.7976 48.8475 4.7346 49.053C4.6716 49.2584 4.73944 49.4839 4.90906 49.6142L7.83123 51.8093L6.71664 55.3625C6.65364 55.568 6.72148 55.7935 6.8911 55.9238C7.06071 56.0491 7.29332 56.0491 7.46293 55.9238L10.3851 53.7287L13.3073 55.9238C13.3945 55.9889 13.4914 56.019 13.5932 56.019C13.695 56.019 13.7919 55.9889 13.8791 55.9238C14.0487 55.7985 14.1214 55.568 14.0536 55.3625L12.939 51.8093L15.8612 49.6142C16.0308 49.489 16.1035 49.2584 16.0356 49.053C15.9678 48.8475 15.7739 48.7072 15.5656 48.7072ZM12.0764 51.2129C11.9068 51.3382 11.8341 51.5687 11.9019 51.7742L12.6676 54.2048L10.6662 52.7014C10.579 52.6362 10.482 52.6061 10.3803 52.6061C10.2785 52.6061 10.1816 52.6362 10.0943 52.7014L8.09292 54.2048L8.8586 51.7742C8.9216 51.5687 8.85375 51.3432 8.68414 51.2129L6.68272 49.7095H9.15421C9.36259 49.7095 9.55159 49.5691 9.61459 49.3637L10.3803 46.9331L11.1459 49.3637C11.2089 49.5691 11.3979 49.7095 11.6063 49.7095H14.0778L12.0764 51.2129Z" fill="white"/>
<path d="M15.5655 13.5562H30.7967C31.0633 13.5562 31.2813 13.3307 31.2813 13.0551C31.2813 12.7794 31.0633 12.5539 30.7967 12.5539H15.5655C15.299 12.5539 15.0809 12.7794 15.0809 13.0551C15.0809 13.3307 15.299 13.5562 15.5655 13.5562Z" fill="white"/>
<path d="M5.19011 20.1965H40.5034C40.7699 20.1965 40.988 19.971 40.988 19.6954C40.988 19.4197 40.7699 19.1942 40.5034 19.1942H5.19011C4.92358 19.1942 4.70551 19.4197 4.70551 19.6954C4.70551 19.971 4.92358 20.1965 5.19011 20.1965Z" fill="white"/>
<path d="M33.4427 25.8345H5.3452C5.07867 25.8345 4.8606 26.06 4.8606 26.3356C4.8606 26.6113 5.07867 26.8368 5.3452 26.8368H33.4427C33.7092 26.8368 33.9273 26.6113 33.9273 26.3356C33.9273 26.06 33.7092 25.8345 33.4427 25.8345Z" fill="white"/>
<path d="M61.9182 3.24247C61.7631 2.8215 61.4578 2.42057 61.0604 2.10986C60.663 1.79914 60.2027 1.6087 59.7714 1.56861C59.2674 1.52351 58.8264 1.70392 58.5744 2.05473L57.9832 2.8666L57.2999 2.33538C56.665 1.83923 55.9284 1.55358 55.2354 1.52852C54.494 1.50847 53.8398 1.78912 53.4521 2.31533L50.0162 7.03119C49.8563 7.2517 49.8999 7.56742 50.1132 7.73281C50.2004 7.80297 50.3021 7.83304 50.4039 7.83304C50.5493 7.83304 50.6947 7.76287 50.7916 7.63257L54.2275 2.91672C54.4213 2.6511 54.7702 2.51579 55.2015 2.52582C55.7007 2.54085 56.2386 2.75635 56.7183 3.1272L57.4016 3.65842L56.5439 4.84115C56.3403 4.68579 56.0883 4.62064 55.8412 4.66073C55.5844 4.69581 55.3566 4.83614 55.2015 5.05163L49.551 12.8145L46.372 17.1796V4.2548C46.372 1.9094 44.5256 0 42.2577 0H9.24144C9.22206 0 9.20752 0.0100231 9.19298 0.0100231C9.15906 0.0150346 9.12999 0.0200462 9.10091 0.0300693C9.07668 0.0400924 9.05245 0.0451039 9.02822 0.055127C8.99429 0.0701616 8.96522 0.0952193 8.93614 0.120277C8.9216 0.1303 8.90707 0.140323 8.89253 0.155358L0.150228 9.19618C0.140536 9.2062 0.130844 9.22123 0.121152 9.23126C0.0920752 9.26634 0.0678449 9.30142 0.0484606 9.34151C0.0387685 9.36156 0.0339224 9.37659 0.0290764 9.39664C0.0145382 9.43673 0.00969212 9.48183 0.00484606 9.52192C0.00484606 9.53195 0 9.54197 0 9.55199V60.0633C0 62.4087 1.84635 64.3231 4.11915 64.3231H42.2577C44.5256 64.3231 46.3768 62.4137 46.3768 60.0633V48.3112C46.3768 48.3062 46.372 48.3012 46.372 48.2962V27.3831L54.2905 16.508L59.941 8.74514C60.096 8.52964 60.1639 8.26904 60.1251 8.00343C60.0912 7.74784 59.9604 7.51731 59.7665 7.35694L61.8019 4.56551C62.0587 4.2147 62.1023 3.7336 61.9182 3.24247ZM8.75684 1.71395V7.05625C8.75684 8.15879 7.88939 9.06086 6.81841 9.06086H1.65251L8.75684 1.71395ZM42.2577 63.3258H4.11915C2.38426 63.3258 0.969213 61.8675 0.969213 60.0683V10.0632H6.81841C8.42246 10.0632 9.72605 8.71507 9.72605 7.05625V1.00231H42.2577C43.9926 1.00231 45.4028 2.46067 45.4028 4.2548V18.5076L41.3902 24.0203C41.1673 24.326 41.1431 24.7169 41.2885 25.0377L35.7252 32.6752C35.638 32.555 35.5023 32.4698 35.3423 32.4698H5.52451C5.25798 32.4698 5.03991 32.6953 5.03991 32.9709C5.03991 33.2466 5.25798 33.4721 5.52451 33.4721H35.1679C35.163 33.4821 35.1582 33.4871 35.1533 33.4921L33.1035 39.1151H5.19013C4.9236 39.1151 4.70553 39.3406 4.70553 39.6162C4.70553 39.8919 4.9236 40.1174 5.19013 40.1174H34.2277C34.4943 40.1174 34.7124 39.8919 34.7124 39.6162C34.7124 39.541 34.693 39.4709 34.6639 39.4057L39.0205 36.5492C39.0447 36.5341 39.0593 36.5091 39.0787 36.489C39.1029 36.469 39.1271 36.4539 39.1465 36.4289L45.2235 28.0897C45.2671 28.0947 45.3107 28.1097 45.3543 28.1097C45.3689 28.1097 45.3834 28.1047 45.4028 28.1047V48.3112C45.4028 48.3163 45.4076 48.3213 45.4076 48.3263V60.0633C45.4028 61.8624 43.9926 63.3258 42.2577 63.3258ZM34.4022 38.3934L35.8318 34.4744L37.9108 36.0931L34.4022 38.3934ZM38.6667 35.4266L36.2825 33.5723L41.9863 25.7443L44.3706 27.5985L38.6667 35.4266ZM45.6208 26.7466C45.553 26.7967 45.49 26.8568 45.4561 26.937C45.3301 26.8418 45.1799 26.8218 45.0393 26.8619L42.4854 24.8723C42.4806 24.7219 42.4224 24.5766 42.3013 24.4814C42.2916 24.4764 42.2868 24.4764 42.2771 24.4713L50.0356 13.8168L51.63 15.0597L53.2243 16.3025L45.6208 26.7466ZM53.8058 15.5057L52.2115 14.2628L50.6171 13.02L55.9769 5.65803L56.2095 5.83844C56.2386 5.88856 56.2773 5.93867 56.3306 5.97877C56.3791 6.01886 56.4373 6.04392 56.4954 6.05895L58.6616 7.74784C58.6907 7.79796 58.7295 7.84807 58.7828 7.88816C58.8312 7.92826 58.8894 7.95331 58.9427 7.96835L59.1704 8.14876L53.8058 15.5057ZM61.0265 3.96413L58.996 6.75555L57.3192 5.45255L58.4678 3.87392L59.3497 2.66614C59.3982 2.59598 59.5339 2.56591 59.6938 2.57593C59.941 2.59598 60.2269 2.72127 60.4789 2.91672C60.7309 3.11217 60.9247 3.36274 61.0119 3.6033C61.0701 3.75364 61.0749 3.89397 61.0265 3.96413Z" fill="white"/>
</svg>
